<svg width="24" height="32" viewBox="0 0 24 32" fill="none" xmlns="http://www.w3.org/2000/svg">
<g filter="url(#filter0_d)">
<path d="M3 1H19V25L11 20L3 25V1Z" fill="url(#paint0_linear)"/>
</g>
<path d="M6.12911 7.459C6.44978 7.06033 7.01311 6.861 7.81911 6.861C8.62511 6.861 9.18845 7.06033 9.50911 7.459C9.82978 7.85767 9.99011 8.54667 9.99011 9.526C9.99011 10.4967 9.82545 11.1857 9.49611 11.593C9.17545 11.9917 8.61645 12.191 7.81911 12.191C7.02178 12.191 6.45845 11.9917 6.12911 11.593C5.80845 11.1857 5.64811 10.4967 5.64811 9.526C5.64811 8.54667 5.80845 7.85767 6.12911 7.459ZM8.72911 16H7.67611L13.2401 7.03H14.2801L8.72911 16ZM8.58611 8.161C8.44745 7.91833 8.18745 7.797 7.80611 7.797C7.42478 7.797 7.16478 7.91833 7.02611 8.161C6.89611 8.40367 6.83111 8.85867 6.83111 9.526C6.83111 10.202 6.89611 10.6613 7.02611 10.904C7.16478 11.138 7.42478 11.255 7.80611 11.255C8.18745 11.255 8.44745 11.138 8.58611 10.904C8.73345 10.6613 8.80711 10.202 8.80711 9.526C8.80711 8.85867 8.73345 8.40367 8.58611 8.161ZM12.4861 11.411C12.8068 11.0037 13.3658 10.8 14.1631 10.8C14.9604 10.8 15.5194 11.0037 15.8401 11.411C16.1694 11.8097 16.3341 12.4943 16.3341 13.465C16.3341 14.453 16.1738 15.1463 15.8531 15.545C15.5324 15.9437 14.9691 16.143 14.1631 16.143C13.3658 16.143 12.8068 15.9437 12.4861 15.545C12.1654 15.1463 12.0051 14.453 12.0051 13.465C12.0051 12.4943 12.1654 11.8097 12.4861 11.411ZM14.1631 11.749C13.7731 11.749 13.5088 11.866 13.3701 12.1C13.2401 12.334 13.1794 12.789 13.1881 13.465C13.1794 14.141 13.2444 14.6003 13.3831 14.843C13.5218 15.0857 13.7818 15.207 14.1631 15.207C14.5444 15.207 14.8044 15.0857 14.9431 14.843C15.0818 14.6003 15.1511 14.141 15.1511 13.465C15.1511 12.789 15.0818 12.334 14.9431 12.1C14.8044 11.866 14.5444 11.749 14.1631 11.749Z" fill="black"/>
<defs>
<filter id="filter0_d" x="0" y="0" width="24" height="32" filterUnits="userSpaceOnUse" color-interpolation-filters="sRGB">
<feFlood flood-opacity="0" result="BackgroundImageFix"/>
<feColorMatrix in="SourceAlpha" type="matrix" values="0 0 0 0 0 0 0 0 0 0 0 0 0 0 0 0 0 0 127 0"/>
<feOffset dx="1" dy="3"/>
<feGaussianBlur stdDeviation="2"/>
<feColorMatrix type="matrix" values="0 0 0 0 0 0 0 0 0 0 0 0 0 0 0 0 0 0 0.25 0"/>
<feBlend mode="normal" in2="BackgroundImageFix" result="effect1_dropShadow"/>
<feBlend mode="normal" in="SourceGraphic" in2="effect1_dropShadow" result="shape"/>
</filter>
<linearGradient id="paint0_linear" x1="11" y1="1" x2="11" y2="25" gradientUnits="userSpaceOnUse">
<stop stop-color="#FFF160"/>
<stop offset="1" stop-color="#FBDB44"/>
</linearGradient>
</defs>
</svg>
