<svg width="24" height="24" viewBox="0 0 24 24" fill="none" xmlns="http://www.w3.org/2000/svg">
<path d="M3.3403 16.9999C2.91758 16.2689 2.58897 15.4874 2.3623 14.6739C3.36818 14.1623 4.00185 13.1296 4.00228 12.0011C4.0027 10.8726 3.36979 9.83929 2.3643 9.32694C2.81634 7.69243 3.67703 6.1999 4.8653 4.98994C5.81161 5.60518 7.02316 5.63718 8.00063 5.07278C8.97811 4.50837 9.55606 3.44308 9.4963 2.31594C11.1384 1.89157 12.8615 1.89226 14.5033 2.31795C14.4441 3.44506 15.0225 4.51003 16.0001 5.07401C16.9778 5.63798 18.1893 5.6055 19.1353 4.98994C19.7143 5.57994 20.2283 6.25095 20.6603 6.99995C21.0933 7.74895 21.4173 8.52995 21.6383 9.32595C20.6324 9.83754 19.9988 10.8703 19.9983 11.9988C19.9979 13.1273 20.6308 14.1606 21.6363 14.6729C21.1843 16.3075 20.3236 17.8 19.1353 19.0099C18.189 18.3947 16.9774 18.3627 16 18.9271C15.0225 19.4915 14.4445 20.5568 14.5043 21.6839C12.8622 22.1083 11.1391 22.1076 9.4973 21.6819C9.55653 20.5548 8.97814 19.4899 8.00048 18.9259C7.02281 18.3619 5.81134 18.3944 4.8653 19.0099C4.2743 18.4069 3.7619 17.7315 3.3403 16.9999ZM9.0003 17.1959C10.0659 17.8106 10.8672 18.797 11.2503 19.9659C11.7493 20.0129 12.2503 20.0139 12.7493 19.9669C13.1327 18.7978 13.9343 17.8114 15.0003 17.1969C16.0655 16.5806 17.3208 16.3794 18.5253 16.6319C18.8153 16.2239 19.0653 15.7889 19.2733 15.3339C18.4527 14.4174 17.9994 13.2302 18.0003 11.9999C18.0003 10.7399 18.4703 9.56295 19.2733 8.66595C19.0638 8.21109 18.8128 7.77658 18.5233 7.36795C17.3196 7.62025 16.0651 7.41942 15.0003 6.80395C13.9347 6.18932 13.1335 5.20293 12.7503 4.03394C12.2513 3.98694 11.7503 3.98594 11.2513 4.03294C10.8679 5.20209 10.0663 6.1885 9.0003 6.80295C7.93509 7.41926 6.67978 7.62046 5.4753 7.36795C5.18587 7.77623 4.93544 8.21081 4.7273 8.66595C5.54788 9.5825 6.00119 10.7697 6.0003 11.9999C6.0003 13.2599 5.5303 14.4369 4.7273 15.3339C4.93678 15.7888 5.18784 16.2233 5.4773 16.6319C6.68102 16.3796 7.93551 16.5805 9.0003 17.1959ZM12.0003 14.9999C10.3435 14.9999 9.0003 13.6568 9.0003 11.9999C9.0003 10.3431 10.3435 8.99995 12.0003 8.99995C13.6572 8.99995 15.0003 10.3431 15.0003 11.9999C15.0003 13.6568 13.6572 14.9999 12.0003 14.9999ZM12.0003 12.9999C12.5526 12.9999 13.0003 12.5522 13.0003 11.9999C13.0003 11.4477 12.5526 10.9999 12.0003 10.9999C11.448 10.9999 11.0003 11.4477 11.0003 11.9999C11.0003 12.5522 11.448 12.9999 12.0003 12.9999Z" fill="black"/>
</svg>
