<svg width="24" height="24" viewBox="0 0 24 24" fill="none" xmlns="http://www.w3.org/2000/svg">
<path d="M12 0C11.3684 0 10.9474 0.421053 10.9474 0.842105V2.73684C10.9474 3.15789 11.3684 3.57895 11.7895 3.57895C12.2105 3.57895 12.6316 3.15789 12.6316 2.73684V1.89474C17.4737 2.31579 21.2632 6.10526 21.6842 11.1579H20.8421C20.4211 11.1579 20 11.5789 20 12C20 12.4211 20.4211 12.8421 20.8421 12.8421H21.6842C21.2632 17.6842 17.4737 21.4737 12.6316 21.8947V21.0526C12.6316 20.6316 12.2105 20.2105 11.7895 20.2105C11.3684 20.2105 10.9474 20.6316 10.9474 21.0526V21.8947C6.10526 21.4737 2.31579 17.6842 1.89474 12.8421H2.73684C3.15789 12.8421 3.57895 12.4211 3.57895 12C3.57895 11.5789 3.15789 11.1579 2.73684 11.1579H0.842105C0.421053 10.9474 0 11.3684 0 12C0 18.5263 5.26316 24 12 24C18.5263 24 24 18.7368 24 12C24 5.26316 18.5263 0 12 0Z" fill="#FFE501"/>
<path d="M8.63166 9.47366C9.05271 9.47366 9.47377 9.89471 9.47377 10.3158C9.47377 10.7368 9.05271 11.1579 8.63166 11.7894L6.10535 14.3158V15.5789H11.3685V13.8947H8.84219L10.1053 12.6316C10.7369 12 11.3685 11.1579 11.3685 10.1052C11.3685 8.63155 10.1053 7.57892 8.63166 7.57892C7.57903 7.57892 6.5264 8.2105 6.10535 9.26313L7.57903 10.1052C7.78956 9.68418 8.00008 9.47366 8.63166 9.47366Z" fill="#FFE501"/>
<path d="M14.3157 7.78949L11.7894 12.8421V14.3158H15.3684V15.579H17.2631V14.3158H17.8947V12.8421H17.2631V11.1579H15.3684V12.8421H13.6842L16.2105 7.78949H14.3157Z" fill="#FFE501"/>
</svg>
