<svg width="18" height="24" viewBox="0 0 18 24" fill="none" xmlns="http://www.w3.org/2000/svg">
<path d="M8.775 0C4.05 0 0 3.82301 0 8.28319C0 12.531 7.2 22.5133 8.1 23.5752C8.325 23.7876 8.55 24 9 24C9.225 24 9.675 23.7876 9.9 23.5752C10.8 22.5133 18 12.531 18 8.28319C17.775 3.82301 13.725 0 8.775 0ZM8.775 21.4513C6.3 18.0531 2.025 11.0442 2.025 8.28319C2.025 4.67257 5.175 1.69912 9 1.69912C12.825 1.69912 15.75 4.67257 15.75 8.28319C15.75 11.0442 11.25 18.0531 8.775 21.4513Z" fill="#FFE501"/>
<path d="M8.77495 3.61066C6.07495 3.61066 3.82495 5.73455 3.82495 8.28322C3.82495 10.8319 6.07495 12.9558 8.77495 12.9558C11.475 12.9558 13.725 10.8319 13.725 8.28322C13.725 5.73455 11.475 3.61066 8.77495 3.61066ZM8.77495 11.0443C7.19995 11.0443 5.84995 9.76995 5.84995 8.28322C5.84995 6.7965 7.19995 5.52216 8.77495 5.52216C10.35 5.52216 11.7 6.7965 11.7 8.28322C11.7 9.76995 10.575 11.0443 8.77495 11.0443Z" fill="#FFE501"/>
</svg>
