<svg width="20" height="22" viewBox="0 0 20 22" fill="none" xmlns="http://www.w3.org/2000/svg">
<path d="M1.3403 15.9999C0.917575 15.2689 0.58897 14.4874 0.362305 13.6739C1.36818 13.1623 2.00185 12.1296 2.00228 11.0011C2.0027 9.87256 1.36979 8.83929 0.364305 8.32694C0.816341 6.69243 1.67703 5.1999 2.8653 3.98994C3.81161 4.60518 5.02316 4.63718 6.00063 4.07278C6.97811 3.50837 7.55606 2.44308 7.4963 1.31594C9.13841 0.891567 10.8615 0.892255 12.5033 1.31795C12.4441 2.44506 13.0225 3.51003 14.0001 4.07401C14.9778 4.63798 16.1893 4.6055 17.1353 3.98994C17.7143 4.57994 18.2283 5.25095 18.6603 5.99995C19.0933 6.74895 19.4173 7.52995 19.6383 8.32595C18.6324 8.83754 17.9988 9.87033 17.9983 10.9988C17.9979 12.1273 18.6308 13.1606 19.6363 13.6729C19.1843 15.3075 18.3236 16.8 17.1353 18.0099C16.189 17.3947 14.9774 17.3627 14 17.9271C13.0225 18.4915 12.4445 19.5568 12.5043 20.6839C10.8622 21.1083 9.13907 21.1076 7.4973 20.6819C7.55653 19.5548 6.97814 18.4899 6.00048 17.9259C5.02281 17.3619 3.81134 17.3944 2.8653 18.0099C2.2743 17.4069 1.7619 16.7315 1.3403 15.9999ZM7.0003 16.1959C8.06593 16.8106 8.86715 17.797 9.25031 18.9659C9.7493 19.0129 10.2503 19.0139 10.7493 18.9669C11.1327 17.7978 11.9343 16.8114 13.0003 16.1969C14.0655 15.5806 15.3208 15.3794 16.5253 15.6319C16.8153 15.2239 17.0653 14.7889 17.2733 14.3339C16.4527 13.4174 15.9994 12.2302 16.0003 10.9999C16.0003 9.73994 16.4703 8.56295 17.2733 7.66595C17.0638 7.21109 16.8128 6.77658 16.5233 6.36795C15.3196 6.62025 14.0651 6.41942 13.0003 5.80395C11.9347 5.18932 11.1335 4.20293 10.7503 3.03394C10.2513 2.98694 9.7503 2.98594 9.2513 3.03294C8.8679 4.20209 8.06631 5.1885 7.0003 5.80295C5.93509 6.41926 4.67978 6.62046 3.4753 6.36795C3.18587 6.77623 2.93544 7.21081 2.7273 7.66595C3.54788 8.5825 4.00119 9.76974 4.0003 10.9999C4.0003 12.2599 3.5303 13.4369 2.7273 14.3339C2.93678 14.7888 3.18784 15.2233 3.4773 15.6319C4.68102 15.3796 5.93551 15.5805 7.0003 16.1959ZM10.0003 13.9999C8.34345 13.9999 7.0003 12.6568 7.0003 10.9999C7.0003 9.34309 8.34345 7.99995 10.0003 7.99995C11.6572 7.99995 13.0003 9.34309 13.0003 10.9999C13.0003 12.6568 11.6572 13.9999 10.0003 13.9999ZM10.0003 11.9999C10.5526 11.9999 11.0003 11.5522 11.0003 10.9999C11.0003 10.4477 10.5526 9.99994 10.0003 9.99994C9.44802 9.99994 9.00031 10.4477 9.00031 10.9999C9.00031 11.5522 9.44802 11.9999 10.0003 11.9999Z" fill="black"/>
</svg>
