<svg width="16" height="16" viewBox="0 0 16 16" fill="none" xmlns="http://www.w3.org/2000/svg">
<path d="M3.30999 3.39745L5.67399 11.6708L7.70065 7.61745L11.4587 6.11411L3.30999 3.39745ZM1.93265 1.53345L14.47 5.71211C14.5349 5.73362 14.5916 5.77456 14.6324 5.82938C14.6733 5.8842 14.6963 5.95025 14.6983 6.01858C14.7003 6.08691 14.6813 6.15422 14.6438 6.21138C14.6063 6.26853 14.5521 6.31278 14.4887 6.33811L8.66665 8.66678L5.71665 14.5668C5.68663 14.6269 5.63917 14.6765 5.58047 14.7091C5.52177 14.7417 5.45459 14.7559 5.38771 14.7497C5.32084 14.7435 5.25739 14.7172 5.20569 14.6744C5.154 14.6315 5.11645 14.574 5.09799 14.5094L1.50665 1.94078C1.49002 1.88239 1.48965 1.82056 1.50558 1.76198C1.52151 1.70339 1.55314 1.65027 1.59705 1.60835C1.64097 1.56642 1.6955 1.53729 1.75476 1.52409C1.81402 1.51089 1.87576 1.51412 1.93332 1.53345H1.93265Z" fill="#1C98FF"/>
</svg>
